# xmcd
# Track frame offsets:
# 182
# 18385
# 35765
# 52997
# 65867
# 89985
# 110537
# 124817
# 146520
# 168900
#
# Disc length: 2490 seconds
# Revision: 0
# Processed by: cddbd v1.4PL0 Copyright (c) Steve Scherf et al.
# Submitted via: VisiTrax 2.9.2.167 - For more info visit www.synapsa.com
#
DISCID=9309b80a
DTITLE=John Lee Hooker - I Wanna Dance All Night
DYEAR=1900
DGENRE=
TTITLE0=Hey Baby You Look Good To Me
TTITLE1=I Wanna Dance All Night
TTITLE2=Mean Woman
TTITLE3=Why Put Me Down
TTITLE4=My Name Is Ringing
TTITLE5=Whatt's The Matter Baby
TTITLE6=Baby Don't You Wanna Go
TTITLE7=Talk To Your Daughter
TTITLE8=You Move Me
TTITLE9=The Tings I Tell You To Do
EXTD=
EXTT0=
EXTT1=
EXTT2=
EXTT3=
EXTT4=
EXTT5=
EXTT6=
EXTT7=
EXTT8=
EXTT9=
PLAYORDER=
